<svg xmlns="http://www.w3.org/2000/svg" xmlns:xlink="http://www.w3.org/1999/xlink" viewBox="0 0 181.48 30">
    <defs>
        <style>.cls-1{fill:none;}.cls-2{clip-path:url(#clip-path);}.cls-3{fill:url(#linear-gradient);}.cls-4{clip-path:url(#clip-path-2);}.cls-5{fill:url(#linear-gradient-2);}.cls-6{clip-path:url(#clip-path-3);}
        </style>
        <clipPath id="clip-path"><polygon class="cls-1" points="3.81 6.19 12.94 6.19 19.68 15 12.94 23.79 3.81 23.8 3.81 19.67 10.88 19.67 14.49 15 10.88 10.31 3.81 10.31 3.81 6.19"/></clipPath>
        <linearGradient id="linear-gradient" y1="30" x2="1" y2="30" gradientTransform="matrix(-15.87, 0, 0, 15.87, 19.68, -461.08)" gradientUnits="userSpaceOnUse"><stop offset="0" stop-color="#30e3ca"/><stop offset="0.02" stop-color="#30e3ca"/><stop offset="1" stop-color="#11999e"/></linearGradient>
        <clipPath id="clip-path-2"><path class="cls-1" d="M14.26,0A15,15,0,0,0,0,10.32H4.45a10.86,10.86,0,1,1,0,9.36H0A15,15,0,1,0,14.26,0Z"/></clipPath>
        <linearGradient id="linear-gradient-2" x1="0" y1="30" x2="1" y2="30" gradientTransform="matrix(29.26, 0, 0, -29.26, 0, 892.7)" xlink:href="#linear-gradient"/>
     
    </defs>
    <title>Logo DaddyCoin</title>
    <g class="cls-2">
        <rect class="cls-3" x="3.81" y="6.19" width="15.87" height="17.61"/>
    </g>
    <g class="cls-4"><rect class="cls-5" width="29.26" height="30"/></g>
    <g class="cls-6"><path d="M48.2,22.62a6.79,6.79,0,0,1-2,5,6.64,6.64,0,0,1-4.9,2.05H34.33V.35h6.93a6.63,6.63,0,0,1,4.91,2.05,6.78,6.78,0,0,1,2,4.93Zm-9.45,2.64H41.4a2.36,2.36,0,0,0,1.77-.76,2.5,2.5,0,0,0,.72-1.79V7.4a2.47,2.47,0,0,0-.73-1.8,2.39,2.39,0,0,0-1.76-.75H38.74Z"/><path d="M56.9,22.9l-1.07,6.72H51.23l5-29.25h6.07l4.9,29.25H62.54l-1-6.72ZM59.22,7.07,57.58,18.61h3.27Z"/><path d="M84.76,22.62a6.79,6.79,0,0,1-2,5,6.65,6.65,0,0,1-4.9,2.05H70.89V.35h6.93a6.63,6.63,0,0,1,4.92,2.05,6.78,6.78,0,0,1,2,4.93ZM75.3,25.26H78a2.36,2.36,0,0,0,1.78-.76,2.5,2.5,0,0,0,.72-1.79V7.4a2.47,2.47,0,0,0-.74-1.8A2.39,2.39,0,0,0,78,4.86H75.3Z"/><path d="M102.5,22.62a6.79,6.79,0,0,1-2,5,6.64,6.64,0,0,1-4.9,2.05H88.63V.35h6.93a6.63,6.63,0,0,1,4.92,2.05,6.78,6.78,0,0,1,2,4.93ZM93,25.26h2.66a2.36,2.36,0,0,0,1.78-.76,2.5,2.5,0,0,0,.72-1.79V7.4a2.47,2.47,0,0,0-.74-1.8,2.38,2.38,0,0,0-1.76-.75H93Z"/><polygon points="110.23 17.37 104.32 0.35 109.18 0.35 112.45 10.86 115.69 0.35 120.57 0.35 114.64 17.37 114.64 29.63 110.23 29.63 110.23 17.37"/><path d="M129.49,30a7,7,0,0,1-7-7v-16a6.74,6.74,0,0,1,2.06-5,6.77,6.77,0,0,1,5-2,6.7,6.7,0,0,1,4.95,2.05,6.78,6.78,0,0,1,2,5v3.34h-4.58V7a2.55,2.55,0,0,0-2.54-2.54,2.41,2.41,0,0,0-1.79.75,2.47,2.47,0,0,0-.74,1.8V23a2.51,2.51,0,0,0,2.52,2.52,2.47,2.47,0,0,0,1.8-.74,2.41,2.41,0,0,0,.75-1.79v-4h4.58V23a7,7,0,0,1-7,7"/><path d="M147,0a6.74,6.74,0,0,1,5,2.06A6.77,6.77,0,0,1,154,7V23a7,7,0,1,1-14,0V7a6.73,6.73,0,0,1,2.05-5A6.74,6.74,0,0,1,147,0m2.41,6.91a2.51,2.51,0,0,0-2.52-2.52,2.47,2.47,0,0,0-1.8.74,2.41,2.41,0,0,0-.75,1.79v16a2.41,2.41,0,0,0,.75,1.79,2.47,2.47,0,0,0,1.8.74,2.51,2.51,0,0,0,2.52-2.52Z"/><rect x="157.9" y="0.37" width="4.41" height="29.25"/><polygon points="171.21 0.35 177.07 20.02 177.07 0.35 181.48 0.35 181.48 29.63 176.74 29.63 170.67 10.88 170.67 29.63 166.26 29.63 166.26 0.35 171.21 0.35"/></g>
</svg>